<?xml version="1.0" encoding="UTF-8" standalone="no"?>
<svg
   t="1552895621502"
   class="icon"
   style=""
   viewBox="0 0 1024 1024"
   version="1.1"
   p-id="6506"
   width="200"
   height="200"
   id="svg830"
   xmlns="http://www.w3.org/2000/svg"
   xmlns:svg="http://www.w3.org/2000/svg">
  <defs
     id="defs826">
    <style
       type="text/css"
       id="style824" />
  </defs>
  <path
     d="m 449.71084,833.37337 q -76.27781,0 -141.06799,-22.51574 -64.33068,-22.51574 -110.74068,-67.08771 -46.40999,-44.57197 -72.14226,-111.20018 -25.27277,-66.62821 -25.27277,-153.93413 0,-81.33236 24.35376,-147.50106 24.35376,-66.16871 70.76375,-113.49771 44.57197,-45.49098 110.28117,-70.30424 66.1687,-24.81327 144.28453,-24.81327 43.19346,0 77.65632,5.05456 34.92237,4.59505 64.33068,12.40663 30.78683,8.73059 55.60009,19.75871 25.27277,10.56861 44.11247,19.75871 V 345.3792 H 671.6517 q -12.86614,-11.02812 -32.62485,-26.19178 -19.2992,-15.16366 -44.11247,-29.86782 -25.27276,-14.70415 -54.68108,-24.81326 -29.40831,-10.10911 -62.95216,-10.10911 -37.2199,0 -70.76375,11.94713 -33.54386,11.48762 -62.03316,38.59841 -27.11079,26.19178 -44.11247,69.38523 -16.54218,43.19346 -16.54218,104.76711 0,64.33069 17.92069,107.52414 18.3802,43.19346 45.95049,68.00673 28.0298,25.27276 62.49266,36.30088 34.46287,10.56861 68.00673,10.56861 32.16534,0 63.41167,-9.6496 31.70583,-9.6496 58.35712,-26.19178 22.51574,-13.32564 41.81494,-28.4893 19.2992,-15.16366 31.70584,-26.19178 h 18.38019 v 163.58374 q -25.73227,11.48762 -49.16702,21.59673 -23.43475,10.1091 -49.16702,17.46118 -33.54386,9.6496 -62.95217,14.70416 -29.40831,5.05455 -80.87286,5.05455 z"
     style="font-weight:bold;font-size:941.066px;line-height:1.25;-inkscape-font-specification:'sans-serif, Bold';stroke-width:23.5266"
     id="path5296" />
</svg>
